<svg width="60" height="59" viewBox="0 0 60 59" fill="none" xmlns="http://www.w3.org/2000/svg">
<path d="M56.25 30.7925C56.25 45.2825 44.5031 57.0425 30 57.0425C15.4969 57.0425 3.75 45.2825 3.75 30.7925C3.75 16.2894 15.4969 4.54248 30 4.54248C44.5031 4.54248 56.25 16.2894 56.25 30.7925Z" fill="#121212"/>
<path d="M42.304 24.1501C42.1607 24.2336 38.7508 25.9971 38.7508 29.9072C38.9115 34.3664 43.054 35.9302 43.125 35.9302C43.054 36.0138 42.4996 38.0605 40.8575 40.206C39.5543 42.0541 38.1079 43.9175 35.9115 43.9175C33.8222 43.9175 33.0722 42.6857 30.6615 42.6857C28.0726 42.6857 27.34 43.9175 25.3579 43.9175C23.1614 43.9175 21.6079 41.9543 20.2336 40.1235C18.4483 37.7274 16.9308 33.967 16.8773 30.3565C16.8412 28.4432 17.2348 26.5625 18.234 24.9651C19.6443 22.7349 22.1622 21.2211 24.9118 21.1711C27.0186 21.1049 28.8936 22.519 30.1793 22.519C31.4115 22.519 33.715 21.1711 36.3214 21.1711C37.4464 21.1722 40.4464 21.488 42.304 24.1501ZM30.0011 20.7891C29.6261 19.0419 30.6615 17.2947 31.6257 16.1802C32.8579 14.8323 34.8039 13.9175 36.4821 13.9175C36.5893 15.6647 35.9103 17.3783 34.6968 18.6263C33.6079 19.9741 31.7329 20.9888 30.0011 20.7891Z" fill="white"/>
</svg>
